<mxfile host="app.diagrams.net" modified="2023-04-18T20:35:18.660Z" agent="Mozilla/5.0 (Windows NT 10.0; Win64; x64) AppleWebKit/537.36 (KHTML, like Gecko) Chrome/111.0.0.0 Safari/537.36 OPR/97.0.0.0" etag="IxX6TuaJYpC5HffI0K19" version="21.1.7" type="google">
  <diagram id="6I0OCvxSQrVGMHxT2VVA" name="Page-1">
    <mxGraphModel grid="0" page="0" gridSize="10" guides="1" tooltips="1" connect="1" arrows="1" fold="1" pageScale="1" pageWidth="850" pageHeight="1100" math="0" shadow="0">
      <root>
        <mxCell id="0" />
        <mxCell id="1" parent="0" />
        <mxCell id="NRnLiXCZs7Ot5jkAOs1V-70" style="edgeStyle=orthogonalEdgeStyle;rounded=0;orthogonalLoop=1;jettySize=auto;html=1;exitX=1;exitY=0.5;exitDx=0;exitDy=0;exitPerimeter=0;entryX=0.75;entryY=0;entryDx=0;entryDy=0;entryPerimeter=0;" edge="1" parent="1" source="NRnLiXCZs7Ot5jkAOs1V-1" target="NRnLiXCZs7Ot5jkAOs1V-61">
          <mxGeometry relative="1" as="geometry" />
        </mxCell>
        <mxCell id="NRnLiXCZs7Ot5jkAOs1V-1" value="Сервис для просмотра кино" style="html=1;outlineConnect=0;whiteSpace=wrap;fillColor=#ffff99;shape=mxgraph.archimate3.application;appType=serv;archiType=rounded;" vertex="1" parent="1">
          <mxGeometry x="610" y="200" width="190" height="70" as="geometry" />
        </mxCell>
        <mxCell id="NRnLiXCZs7Ot5jkAOs1V-2" value="Сайт Cinematch" style="html=1;outlineConnect=0;whiteSpace=wrap;fillColor=#ffff99;shape=mxgraph.archimate3.product;" vertex="1" parent="1">
          <mxGeometry x="380" y="460" width="150" height="75" as="geometry" />
        </mxCell>
        <mxCell id="NRnLiXCZs7Ot5jkAOs1V-3" value="&lt;table cellpadding=&quot;0&quot; cellspacing=&quot;0&quot; style=&quot;font-size:1em;width:100%;height:100%;&quot;&gt;&lt;tbody&gt;&lt;tr style=&quot;height:20px;&quot;&gt;&lt;td align=&quot;center&quot;&gt;&lt;/td&gt;&lt;/tr&gt;&lt;tr&gt;&lt;td align=&quot;left&quot; valign=&quot;top&quot; style=&quot;padding:4px;&quot;&gt;Серверная часть&lt;/td&gt;&lt;/tr&gt;&lt;/tbody&gt;&lt;/table&gt;" style="html=1;outlineConnect=0;whiteSpace=wrap;fillColor=#ffff99;shape=mxgraph.archimate3.businessObject;overflow=fill;" vertex="1" parent="1">
          <mxGeometry x="340" y="320" width="80" height="60" as="geometry" />
        </mxCell>
        <mxCell id="NRnLiXCZs7Ot5jkAOs1V-4" value="&lt;table cellpadding=&quot;0&quot; cellspacing=&quot;0&quot; style=&quot;font-size:1em;width:100%;height:100%;&quot;&gt;&lt;tbody&gt;&lt;tr style=&quot;height:20px;&quot;&gt;&lt;td align=&quot;center&quot;&gt;&lt;/td&gt;&lt;/tr&gt;&lt;tr&gt;&lt;td align=&quot;left&quot; valign=&quot;top&quot; style=&quot;padding:4px;&quot;&gt;Веб интерфейс&lt;/td&gt;&lt;/tr&gt;&lt;/tbody&gt;&lt;/table&gt;" style="html=1;outlineConnect=0;whiteSpace=wrap;fillColor=#ffff99;shape=mxgraph.archimate3.businessObject;overflow=fill;" vertex="1" parent="1">
          <mxGeometry x="480" y="320" width="80" height="60" as="geometry" />
        </mxCell>
        <mxCell id="NRnLiXCZs7Ot5jkAOs1V-5" value="Обслуживание приложения" style="html=1;outlineConnect=0;whiteSpace=wrap;fillColor=#ffff99;shape=mxgraph.archimate3.application;appType=interaction;archiType=rounded;" vertex="1" parent="1">
          <mxGeometry x="380" y="590" width="150" height="75" as="geometry" />
        </mxCell>
        <mxCell id="NRnLiXCZs7Ot5jkAOs1V-15" style="edgeStyle=orthogonalEdgeStyle;rounded=0;orthogonalLoop=1;jettySize=auto;html=1;entryX=0;entryY=0.5;entryDx=0;entryDy=0;entryPerimeter=0;" edge="1" parent="1" source="NRnLiXCZs7Ot5jkAOs1V-6" target="NRnLiXCZs7Ot5jkAOs1V-7">
          <mxGeometry relative="1" as="geometry" />
        </mxCell>
        <mxCell id="NRnLiXCZs7Ot5jkAOs1V-6" value="Контент менеджер" style="html=1;outlineConnect=0;whiteSpace=wrap;fillColor=#ffff99;shape=mxgraph.archimate3.application;appType=role;archiType=square;" vertex="1" parent="1">
          <mxGeometry x="610" y="590" width="150" height="75" as="geometry" />
        </mxCell>
        <mxCell id="NRnLiXCZs7Ot5jkAOs1V-7" value="Модерация профилей пользователей" style="html=1;outlineConnect=0;whiteSpace=wrap;fillColor=#ffff99;shape=mxgraph.archimate3.application;appType=proc;archiType=rounded;" vertex="1" parent="1">
          <mxGeometry x="963" y="590" width="150" height="75" as="geometry" />
        </mxCell>
        <mxCell id="NRnLiXCZs7Ot5jkAOs1V-17" value="" style="edgeStyle=orthogonalEdgeStyle;rounded=0;orthogonalLoop=1;jettySize=auto;html=1;" edge="1" parent="1" source="NRnLiXCZs7Ot5jkAOs1V-8" target="NRnLiXCZs7Ot5jkAOs1V-9">
          <mxGeometry relative="1" as="geometry" />
        </mxCell>
        <mxCell id="NRnLiXCZs7Ot5jkAOs1V-21" style="edgeStyle=orthogonalEdgeStyle;rounded=0;orthogonalLoop=1;jettySize=auto;html=1;entryX=1;entryY=0.5;entryDx=0;entryDy=0;entryPerimeter=0;" edge="1" parent="1" source="NRnLiXCZs7Ot5jkAOs1V-8" target="NRnLiXCZs7Ot5jkAOs1V-5">
          <mxGeometry relative="1" as="geometry" />
        </mxCell>
        <mxCell id="NRnLiXCZs7Ot5jkAOs1V-8" value="Модератор приложения" style="html=1;outlineConnect=0;whiteSpace=wrap;fillColor=#ffff99;shape=mxgraph.archimate3.application;appType=role;archiType=square;" vertex="1" parent="1">
          <mxGeometry x="610" y="720" width="150" height="75" as="geometry" />
        </mxCell>
        <mxCell id="NRnLiXCZs7Ot5jkAOs1V-9" value="Пополнение списка фильмов" style="html=1;outlineConnect=0;whiteSpace=wrap;fillColor=#ffff99;shape=mxgraph.archimate3.application;appType=proc;archiType=rounded;" vertex="1" parent="1">
          <mxGeometry x="850" y="720" width="150" height="75" as="geometry" />
        </mxCell>
        <mxCell id="NRnLiXCZs7Ot5jkAOs1V-23" value="" style="edgeStyle=orthogonalEdgeStyle;rounded=0;orthogonalLoop=1;jettySize=auto;html=1;" edge="1" parent="1" source="NRnLiXCZs7Ot5jkAOs1V-10" target="NRnLiXCZs7Ot5jkAOs1V-11">
          <mxGeometry relative="1" as="geometry" />
        </mxCell>
        <mxCell id="NRnLiXCZs7Ot5jkAOs1V-10" value="Сбор информации о предпочтениях пользователей" style="html=1;outlineConnect=0;whiteSpace=wrap;fillColor=#ffff99;shape=mxgraph.archimate3.application;appType=serv;archiType=rounded;" vertex="1" parent="1">
          <mxGeometry x="25" y="460" width="140" height="75" as="geometry" />
        </mxCell>
        <mxCell id="NRnLiXCZs7Ot5jkAOs1V-11" value="Обработка предпочтений пользователей" style="html=1;outlineConnect=0;whiteSpace=wrap;fillColor=#ffff99;shape=mxgraph.archimate3.application;appType=proc;archiType=rounded;" vertex="1" parent="1">
          <mxGeometry x="20" y="620" width="150" height="75" as="geometry" />
        </mxCell>
        <mxCell id="NRnLiXCZs7Ot5jkAOs1V-14" style="edgeStyle=orthogonalEdgeStyle;rounded=0;orthogonalLoop=1;jettySize=auto;html=1;entryX=0;entryY=0.5;entryDx=0;entryDy=0;entryPerimeter=0;" edge="1" parent="1" source="NRnLiXCZs7Ot5jkAOs1V-12" target="NRnLiXCZs7Ot5jkAOs1V-13">
          <mxGeometry relative="1" as="geometry" />
        </mxCell>
        <mxCell id="NRnLiXCZs7Ot5jkAOs1V-12" value="Предложение подходящей пары" style="html=1;outlineConnect=0;whiteSpace=wrap;fillColor=#ffff99;shape=mxgraph.archimate3.application;appType=proc;archiType=rounded;" vertex="1" parent="1">
          <mxGeometry x="630" y="460" width="150" height="75" as="geometry" />
        </mxCell>
        <mxCell id="NRnLiXCZs7Ot5jkAOs1V-13" value="Подбор пары" style="html=1;outlineConnect=0;whiteSpace=wrap;fillColor=#ffff99;shape=mxgraph.archimate3.application;appType=event;archiType=rounded;" vertex="1" parent="1">
          <mxGeometry x="858" y="460" width="150" height="75" as="geometry" />
        </mxCell>
        <mxCell id="NRnLiXCZs7Ot5jkAOs1V-20" value="" style="endArrow=block;html=1;endFill=1;startArrow=oval;startFill=1;edgeStyle=elbowEdgeStyle;elbow=vertical;rounded=0;exitX=0;exitY=0.5;exitDx=0;exitDy=0;exitPerimeter=0;entryX=1;entryY=0.5;entryDx=0;entryDy=0;entryPerimeter=0;" edge="1" parent="1" source="NRnLiXCZs7Ot5jkAOs1V-6" target="NRnLiXCZs7Ot5jkAOs1V-5">
          <mxGeometry width="160" relative="1" as="geometry">
            <mxPoint x="370" y="610" as="sourcePoint" />
            <mxPoint x="530" y="610" as="targetPoint" />
          </mxGeometry>
        </mxCell>
        <mxCell id="NRnLiXCZs7Ot5jkAOs1V-22" value="" style="edgeStyle=elbowEdgeStyle;html=1;endArrow=block;dashed=1;elbow=vertical;endFill=1;dashPattern=6 4;rounded=0;entryX=0.5;entryY=1;entryDx=0;entryDy=0;entryPerimeter=0;" edge="1" parent="1" source="NRnLiXCZs7Ot5jkAOs1V-5" target="NRnLiXCZs7Ot5jkAOs1V-2">
          <mxGeometry width="160" relative="1" as="geometry">
            <mxPoint x="455" y="430" as="sourcePoint" />
            <mxPoint x="455" y="430" as="targetPoint" />
          </mxGeometry>
        </mxCell>
        <mxCell id="NRnLiXCZs7Ot5jkAOs1V-25" value="" style="edgeStyle=elbowEdgeStyle;html=1;endArrow=block;dashed=1;elbow=vertical;endFill=1;dashPattern=6 4;rounded=0;entryX=1;entryY=0.5;entryDx=0;entryDy=0;entryPerimeter=0;" edge="1" parent="1" source="NRnLiXCZs7Ot5jkAOs1V-2" target="NRnLiXCZs7Ot5jkAOs1V-10">
          <mxGeometry width="160" relative="1" as="geometry">
            <mxPoint x="220" y="497.5" as="sourcePoint" />
            <mxPoint x="220" y="497.5" as="targetPoint" />
          </mxGeometry>
        </mxCell>
        <mxCell id="NRnLiXCZs7Ot5jkAOs1V-26" value="" style="html=1;endArrow=diamondThin;endFill=1;edgeStyle=elbowEdgeStyle;elbow=vertical;endSize=10;rounded=0;entryX=0.25;entryY=0;entryDx=0;entryDy=0;entryPerimeter=0;" edge="1" parent="1" source="NRnLiXCZs7Ot5jkAOs1V-3" target="NRnLiXCZs7Ot5jkAOs1V-2">
          <mxGeometry width="160" relative="1" as="geometry">
            <mxPoint x="370" y="380" as="sourcePoint" />
            <mxPoint x="370" y="540" as="targetPoint" />
          </mxGeometry>
        </mxCell>
        <mxCell id="NRnLiXCZs7Ot5jkAOs1V-27" value="" style="html=1;endArrow=diamondThin;endFill=1;edgeStyle=elbowEdgeStyle;elbow=vertical;endSize=10;rounded=0;entryX=0.75;entryY=0;entryDx=0;entryDy=0;entryPerimeter=0;" edge="1" parent="1" source="NRnLiXCZs7Ot5jkAOs1V-4" target="NRnLiXCZs7Ot5jkAOs1V-2">
          <mxGeometry width="160" relative="1" as="geometry">
            <mxPoint x="535" y="380" as="sourcePoint" />
            <mxPoint x="535" y="540" as="targetPoint" />
          </mxGeometry>
        </mxCell>
        <mxCell id="NRnLiXCZs7Ot5jkAOs1V-28" value="" style="edgeStyle=elbowEdgeStyle;html=1;endArrow=block;dashed=1;elbow=vertical;endFill=1;dashPattern=6 4;rounded=0;entryX=1;entryY=0.5;entryDx=0;entryDy=0;entryPerimeter=0;" edge="1" parent="1" source="NRnLiXCZs7Ot5jkAOs1V-12" target="NRnLiXCZs7Ot5jkAOs1V-2">
          <mxGeometry width="160" relative="1" as="geometry">
            <mxPoint x="470" y="497.5" as="sourcePoint" />
            <mxPoint x="530" y="498" as="targetPoint" />
          </mxGeometry>
        </mxCell>
        <mxCell id="NRnLiXCZs7Ot5jkAOs1V-29" value="" style="edgeStyle=elbowEdgeStyle;html=1;endArrow=block;elbow=vertical;endFill=0;dashed=1;rounded=0;entryX=0.5;entryY=1;entryDx=0;entryDy=0;entryPerimeter=0;" edge="1" parent="1" source="NRnLiXCZs7Ot5jkAOs1V-12" target="NRnLiXCZs7Ot5jkAOs1V-1">
          <mxGeometry width="160" relative="1" as="geometry">
            <mxPoint x="705" y="300" as="sourcePoint" />
            <mxPoint x="705" y="300" as="targetPoint" />
          </mxGeometry>
        </mxCell>
        <mxCell id="NRnLiXCZs7Ot5jkAOs1V-30" value="" style="edgeStyle=elbowEdgeStyle;html=1;endArrow=block;dashed=1;elbow=vertical;endFill=1;dashPattern=6 4;rounded=0;entryX=0.5;entryY=0;entryDx=0;entryDy=0;entryPerimeter=0;" edge="1" parent="1" source="NRnLiXCZs7Ot5jkAOs1V-1" target="NRnLiXCZs7Ot5jkAOs1V-10">
          <mxGeometry width="160" relative="1" as="geometry">
            <mxPoint x="450" y="235" as="sourcePoint" />
            <mxPoint x="450" y="235" as="targetPoint" />
            <Array as="points">
              <mxPoint x="390" y="240" />
            </Array>
          </mxGeometry>
        </mxCell>
        <mxCell id="NRnLiXCZs7Ot5jkAOs1V-59" style="edgeStyle=orthogonalEdgeStyle;rounded=0;orthogonalLoop=1;jettySize=auto;html=1;exitX=0.5;exitY=0;exitDx=0;exitDy=0;exitPerimeter=0;entryX=0.5;entryY=1;entryDx=0;entryDy=0;entryPerimeter=0;dashed=1;endArrow=block;endFill=0;" edge="1" parent="1" source="NRnLiXCZs7Ot5jkAOs1V-31" target="NRnLiXCZs7Ot5jkAOs1V-11">
          <mxGeometry relative="1" as="geometry" />
        </mxCell>
        <mxCell id="NRnLiXCZs7Ot5jkAOs1V-31" value="Алгоритм поиска подходящих для просмотра фильмов" style="html=1;outlineConnect=0;whiteSpace=wrap;fillColor=#99ffff;shape=mxgraph.archimate3.application;appType=comp;archiType=square;" vertex="1" parent="1">
          <mxGeometry x="-110" y="855" width="150" height="75" as="geometry" />
        </mxCell>
        <mxCell id="NRnLiXCZs7Ot5jkAOs1V-47" style="edgeStyle=orthogonalEdgeStyle;rounded=0;orthogonalLoop=1;jettySize=auto;html=1;exitX=1;exitY=0.5;exitDx=0;exitDy=0;exitPerimeter=0;entryX=0;entryY=0.5;entryDx=0;entryDy=0;entryPerimeter=0;dashed=1;" edge="1" parent="1" source="NRnLiXCZs7Ot5jkAOs1V-32" target="NRnLiXCZs7Ot5jkAOs1V-33">
          <mxGeometry relative="1" as="geometry" />
        </mxCell>
        <mxCell id="NRnLiXCZs7Ot5jkAOs1V-58" style="edgeStyle=orthogonalEdgeStyle;rounded=0;orthogonalLoop=1;jettySize=auto;html=1;exitX=1;exitY=0.75;exitDx=0;exitDy=0;exitPerimeter=0;entryX=0;entryY=0.25;entryDx=0;entryDy=0;entryPerimeter=0;dashed=1;" edge="1" parent="1" source="NRnLiXCZs7Ot5jkAOs1V-32" target="NRnLiXCZs7Ot5jkAOs1V-36">
          <mxGeometry relative="1" as="geometry" />
        </mxCell>
        <mxCell id="NRnLiXCZs7Ot5jkAOs1V-32" value="Найти подходящий фильм&lt;br&gt;для просмотра парой пользователей" style="html=1;outlineConnect=0;whiteSpace=wrap;fillColor=#99ffff;shape=mxgraph.archimate3.application;appType=func;archiType=rounded;" vertex="1" parent="1">
          <mxGeometry x="340" y="857.5" width="180" height="75" as="geometry" />
        </mxCell>
        <mxCell id="NRnLiXCZs7Ot5jkAOs1V-33" value="&lt;table cellpadding=&quot;0&quot; cellspacing=&quot;0&quot; style=&quot;font-size:1em;width:100%;height:100%;&quot;&gt;&lt;tbody&gt;&lt;tr style=&quot;height:20px;&quot;&gt;&lt;td align=&quot;center&quot;&gt;&lt;/td&gt;&lt;/tr&gt;&lt;tr&gt;&lt;td align=&quot;left&quot; valign=&quot;top&quot; style=&quot;padding:4px;&quot;&gt;База данных фильмов&lt;/td&gt;&lt;/tr&gt;&lt;/tbody&gt;&lt;/table&gt;" style="html=1;outlineConnect=0;whiteSpace=wrap;fillColor=#99ffff;shape=mxgraph.archimate3.businessObject;overflow=fill" vertex="1" parent="1">
          <mxGeometry x="660" y="865" width="100" height="60" as="geometry" />
        </mxCell>
        <mxCell id="NRnLiXCZs7Ot5jkAOs1V-44" style="edgeStyle=orthogonalEdgeStyle;rounded=0;orthogonalLoop=1;jettySize=auto;html=1;exitX=0.5;exitY=0;exitDx=0;exitDy=0;exitPerimeter=0;entryX=0.5;entryY=1;entryDx=0;entryDy=0;entryPerimeter=0;dashed=1;endArrow=block;endFill=0;" edge="1" parent="1" source="NRnLiXCZs7Ot5jkAOs1V-34" target="NRnLiXCZs7Ot5jkAOs1V-9">
          <mxGeometry relative="1" as="geometry" />
        </mxCell>
        <mxCell id="NRnLiXCZs7Ot5jkAOs1V-45" style="edgeStyle=orthogonalEdgeStyle;rounded=0;orthogonalLoop=1;jettySize=auto;html=1;exitX=0.25;exitY=1;exitDx=0;exitDy=0;exitPerimeter=0;entryX=1;entryY=0;entryDx=-2.9;entryDy=2.9;entryPerimeter=0;" edge="1" parent="1" source="NRnLiXCZs7Ot5jkAOs1V-34" target="NRnLiXCZs7Ot5jkAOs1V-35">
          <mxGeometry relative="1" as="geometry" />
        </mxCell>
        <mxCell id="NRnLiXCZs7Ot5jkAOs1V-34" value="Алгоритм для встраивания новых фильмов в бд" style="html=1;outlineConnect=0;whiteSpace=wrap;fillColor=#99ffff;shape=mxgraph.archimate3.application;appType=comp;archiType=square;" vertex="1" parent="1">
          <mxGeometry x="872" y="843" width="150" height="75" as="geometry" />
        </mxCell>
        <mxCell id="NRnLiXCZs7Ot5jkAOs1V-46" style="edgeStyle=orthogonalEdgeStyle;rounded=0;orthogonalLoop=1;jettySize=auto;html=1;exitX=0;exitY=0;exitDx=2.9;exitDy=2.9;exitPerimeter=0;dashed=1;" edge="1" parent="1" source="NRnLiXCZs7Ot5jkAOs1V-35" target="NRnLiXCZs7Ot5jkAOs1V-33">
          <mxGeometry relative="1" as="geometry" />
        </mxCell>
        <mxCell id="NRnLiXCZs7Ot5jkAOs1V-35" value="Добавить фильм" style="html=1;outlineConnect=0;whiteSpace=wrap;fillColor=#99ffff;shape=mxgraph.archimate3.application;appType=func;archiType=rounded;" vertex="1" parent="1">
          <mxGeometry x="740" y="980" width="150" height="75" as="geometry" />
        </mxCell>
        <mxCell id="NRnLiXCZs7Ot5jkAOs1V-36" value="&lt;table cellpadding=&quot;0&quot; cellspacing=&quot;0&quot; style=&quot;font-size:1em;width:100%;height:100%;&quot;&gt;&lt;tbody&gt;&lt;tr style=&quot;height:20px;&quot;&gt;&lt;td align=&quot;center&quot;&gt;&lt;/td&gt;&lt;/tr&gt;&lt;tr&gt;&lt;td align=&quot;left&quot; valign=&quot;top&quot; style=&quot;padding:4px;&quot;&gt;База данных пользователей&lt;/td&gt;&lt;/tr&gt;&lt;/tbody&gt;&lt;/table&gt;" style="html=1;outlineConnect=0;whiteSpace=wrap;fillColor=#99ffff;shape=mxgraph.archimate3.businessObject;overflow=fill" vertex="1" parent="1">
          <mxGeometry x="600" y="1092.5" width="110" height="60" as="geometry" />
        </mxCell>
        <mxCell id="NRnLiXCZs7Ot5jkAOs1V-56" style="edgeStyle=orthogonalEdgeStyle;rounded=0;orthogonalLoop=1;jettySize=auto;html=1;exitX=0;exitY=0.5;exitDx=0;exitDy=0;exitPerimeter=0;entryX=1;entryY=0.5;entryDx=0;entryDy=0;entryPerimeter=0;dashed=1;" edge="1" parent="1" source="NRnLiXCZs7Ot5jkAOs1V-37" target="NRnLiXCZs7Ot5jkAOs1V-36">
          <mxGeometry relative="1" as="geometry" />
        </mxCell>
        <mxCell id="NRnLiXCZs7Ot5jkAOs1V-57" style="edgeStyle=orthogonalEdgeStyle;rounded=0;orthogonalLoop=1;jettySize=auto;html=1;exitX=0.5;exitY=0;exitDx=0;exitDy=0;exitPerimeter=0;entryX=0.5;entryY=1;entryDx=0;entryDy=0;entryPerimeter=0;dashed=1;endArrow=block;endFill=0;" edge="1" parent="1" source="NRnLiXCZs7Ot5jkAOs1V-37" target="NRnLiXCZs7Ot5jkAOs1V-7">
          <mxGeometry relative="1" as="geometry" />
        </mxCell>
        <mxCell id="NRnLiXCZs7Ot5jkAOs1V-37" value="Забанить пользователя" style="html=1;outlineConnect=0;whiteSpace=wrap;fillColor=#99ffff;shape=mxgraph.archimate3.application;appType=func;archiType=rounded;" vertex="1" parent="1">
          <mxGeometry x="963" y="1085" width="150" height="75" as="geometry" />
        </mxCell>
        <mxCell id="NRnLiXCZs7Ot5jkAOs1V-52" style="edgeStyle=orthogonalEdgeStyle;rounded=0;orthogonalLoop=1;jettySize=auto;html=1;exitX=1;exitY=0.5;exitDx=0;exitDy=0;exitPerimeter=0;entryX=0;entryY=0.5;entryDx=0;entryDy=0;entryPerimeter=0;dashed=1;" edge="1" parent="1" source="NRnLiXCZs7Ot5jkAOs1V-38" target="NRnLiXCZs7Ot5jkAOs1V-36">
          <mxGeometry relative="1" as="geometry" />
        </mxCell>
        <mxCell id="NRnLiXCZs7Ot5jkAOs1V-38" value="Добавление друзей пользователей из сторонних сервисов" style="html=1;outlineConnect=0;whiteSpace=wrap;fillColor=#99ffff;shape=mxgraph.archimate3.application;appType=func;archiType=rounded;" vertex="1" parent="1">
          <mxGeometry x="240" y="1085" width="150" height="75" as="geometry" />
        </mxCell>
        <mxCell id="NRnLiXCZs7Ot5jkAOs1V-49" value="" style="edgeStyle=orthogonalEdgeStyle;rounded=0;orthogonalLoop=1;jettySize=auto;html=1;" edge="1" parent="1" source="NRnLiXCZs7Ot5jkAOs1V-39" target="NRnLiXCZs7Ot5jkAOs1V-40">
          <mxGeometry relative="1" as="geometry" />
        </mxCell>
        <mxCell id="NRnLiXCZs7Ot5jkAOs1V-39" value="Аутентификация пользователя" style="html=1;outlineConnect=0;whiteSpace=wrap;fillColor=#99ffff;shape=mxgraph.archimate3.application;appType=event;archiType=rounded" vertex="1" parent="1">
          <mxGeometry x="32" y="1211" width="150" height="75" as="geometry" />
        </mxCell>
        <mxCell id="NRnLiXCZs7Ot5jkAOs1V-50" value="" style="edgeStyle=orthogonalEdgeStyle;rounded=0;orthogonalLoop=1;jettySize=auto;html=1;" edge="1" parent="1" source="NRnLiXCZs7Ot5jkAOs1V-40" target="NRnLiXCZs7Ot5jkAOs1V-38">
          <mxGeometry relative="1" as="geometry" />
        </mxCell>
        <mxCell id="NRnLiXCZs7Ot5jkAOs1V-51" value="" style="edgeStyle=orthogonalEdgeStyle;rounded=0;orthogonalLoop=1;jettySize=auto;html=1;dashed=1;" edge="1" parent="1" source="NRnLiXCZs7Ot5jkAOs1V-40" target="NRnLiXCZs7Ot5jkAOs1V-41">
          <mxGeometry relative="1" as="geometry" />
        </mxCell>
        <mxCell id="NRnLiXCZs7Ot5jkAOs1V-40" value="Строение API логина для аутентификации" style="html=1;outlineConnect=0;whiteSpace=wrap;fillColor=#99ffff;shape=mxgraph.archimate3.application;appType=interface;archiType=square;" vertex="1" parent="1">
          <mxGeometry x="240" y="1210" width="150" height="75" as="geometry" />
        </mxCell>
        <mxCell id="NRnLiXCZs7Ot5jkAOs1V-53" style="edgeStyle=orthogonalEdgeStyle;rounded=0;orthogonalLoop=1;jettySize=auto;html=1;exitX=0.5;exitY=0;exitDx=0;exitDy=0;exitPerimeter=0;entryX=0;entryY=0.75;entryDx=0;entryDy=0;entryPerimeter=0;dashed=1;" edge="1" parent="1" source="NRnLiXCZs7Ot5jkAOs1V-41" target="NRnLiXCZs7Ot5jkAOs1V-36">
          <mxGeometry relative="1" as="geometry" />
        </mxCell>
        <mxCell id="NRnLiXCZs7Ot5jkAOs1V-41" value="Добавить нового пользователя" style="html=1;outlineConnect=0;whiteSpace=wrap;fillColor=#99ffff;shape=mxgraph.archimate3.application;appType=func;archiType=rounded;" vertex="1" parent="1">
          <mxGeometry x="495" y="1211" width="150" height="75" as="geometry" />
        </mxCell>
        <mxCell id="NRnLiXCZs7Ot5jkAOs1V-54" value="" style="edgeStyle=orthogonalEdgeStyle;rounded=0;orthogonalLoop=1;jettySize=auto;html=1;dashed=1;" edge="1" parent="1" source="NRnLiXCZs7Ot5jkAOs1V-42" target="NRnLiXCZs7Ot5jkAOs1V-41">
          <mxGeometry relative="1" as="geometry" />
        </mxCell>
        <mxCell id="NRnLiXCZs7Ot5jkAOs1V-42" value="Форма регистрации" style="html=1;outlineConnect=0;whiteSpace=wrap;fillColor=#99ffff;shape=mxgraph.archimate3.application;appType=interface;archiType=square;" vertex="1" parent="1">
          <mxGeometry x="710" y="1210" width="150" height="75" as="geometry" />
        </mxCell>
        <mxCell id="NRnLiXCZs7Ot5jkAOs1V-55" value="" style="edgeStyle=orthogonalEdgeStyle;rounded=0;orthogonalLoop=1;jettySize=auto;html=1;" edge="1" parent="1" source="NRnLiXCZs7Ot5jkAOs1V-43" target="NRnLiXCZs7Ot5jkAOs1V-42">
          <mxGeometry relative="1" as="geometry" />
        </mxCell>
        <mxCell id="NRnLiXCZs7Ot5jkAOs1V-43" value="Регистрация пользователя" style="html=1;outlineConnect=0;whiteSpace=wrap;fillColor=#99ffff;shape=mxgraph.archimate3.application;appType=proc;archiType=rounded;" vertex="1" parent="1">
          <mxGeometry x="920" y="1211" width="150" height="75" as="geometry" />
        </mxCell>
        <mxCell id="NRnLiXCZs7Ot5jkAOs1V-48" value="" style="endArrow=block;html=1;endFill=1;startArrow=oval;startFill=1;edgeStyle=elbowEdgeStyle;elbow=vertical;rounded=0;" edge="1" parent="1" source="NRnLiXCZs7Ot5jkAOs1V-31">
          <mxGeometry width="160" relative="1" as="geometry">
            <mxPoint x="180" y="887.5" as="sourcePoint" />
            <mxPoint x="340" y="887.5" as="targetPoint" />
          </mxGeometry>
        </mxCell>
        <mxCell id="NRnLiXCZs7Ot5jkAOs1V-60" value="Пользователь приложения" style="html=1;outlineConnect=0;whiteSpace=wrap;fillColor=#ffff99;shape=mxgraph.archimate3.application;appType=role;archiType=square;" vertex="1" parent="1">
          <mxGeometry x="886.5" y="330" width="150" height="75" as="geometry" />
        </mxCell>
        <mxCell id="NRnLiXCZs7Ot5jkAOs1V-69" style="edgeStyle=orthogonalEdgeStyle;rounded=0;orthogonalLoop=1;jettySize=auto;html=1;exitX=0;exitY=0.5;exitDx=0;exitDy=0;exitPerimeter=0;entryX=0.5;entryY=0;entryDx=0;entryDy=0;entryPerimeter=0;endArrow=none;endFill=0;" edge="1" parent="1" source="NRnLiXCZs7Ot5jkAOs1V-61" target="NRnLiXCZs7Ot5jkAOs1V-60">
          <mxGeometry relative="1" as="geometry" />
        </mxCell>
        <mxCell id="NRnLiXCZs7Ot5jkAOs1V-61" value="&amp;nbsp;&lt;br&gt;&lt;br&gt;&lt;br&gt;&lt;br&gt;веб-клиент приложения" style="html=1;outlineConnect=0;whiteSpace=wrap;fillColor=#ffff99;shape=mxgraph.archimate3.interface;direction=north;" vertex="1" parent="1">
          <mxGeometry x="944" y="217" width="35" height="70" as="geometry" />
        </mxCell>
        <mxCell id="NRnLiXCZs7Ot5jkAOs1V-81" style="edgeStyle=orthogonalEdgeStyle;rounded=0;orthogonalLoop=1;jettySize=auto;html=1;exitX=0.5;exitY=1;exitDx=0;exitDy=0;exitPerimeter=0;entryX=0.5;entryY=0;entryDx=0;entryDy=0;entryPerimeter=0;endArrow=oval;endFill=1;startArrow=oval;startFill=1;" edge="1" parent="1" source="NRnLiXCZs7Ot5jkAOs1V-66" target="NRnLiXCZs7Ot5jkAOs1V-76">
          <mxGeometry relative="1" as="geometry" />
        </mxCell>
        <mxCell id="NRnLiXCZs7Ot5jkAOs1V-92" style="edgeStyle=orthogonalEdgeStyle;rounded=0;orthogonalLoop=1;jettySize=auto;html=1;exitX=1;exitY=0.5;exitDx=0;exitDy=0;exitPerimeter=0;entryX=0;entryY=0.25;entryDx=0;entryDy=0;entryPerimeter=0;startArrow=oval;startFill=1;" edge="1" parent="1" source="NRnLiXCZs7Ot5jkAOs1V-66" target="NRnLiXCZs7Ot5jkAOs1V-88">
          <mxGeometry relative="1" as="geometry" />
        </mxCell>
        <mxCell id="NRnLiXCZs7Ot5jkAOs1V-66" value="Сервер приложения" style="html=1;outlineConnect=0;whiteSpace=wrap;fillColor=#AFFFAF;shape=mxgraph.archimate3.application;appType=node;archiType=square;" vertex="1" parent="1">
          <mxGeometry x="103" y="1458" width="181" height="95" as="geometry" />
        </mxCell>
        <mxCell id="NRnLiXCZs7Ot5jkAOs1V-73" style="edgeStyle=orthogonalEdgeStyle;rounded=0;orthogonalLoop=1;jettySize=auto;html=1;exitX=0.5;exitY=0;exitDx=0;exitDy=0;exitPerimeter=0;entryX=0.5;entryY=1;entryDx=0;entryDy=0;entryPerimeter=0;" edge="1" parent="1" source="NRnLiXCZs7Ot5jkAOs1V-67" target="NRnLiXCZs7Ot5jkAOs1V-31">
          <mxGeometry relative="1" as="geometry" />
        </mxCell>
        <mxCell id="NRnLiXCZs7Ot5jkAOs1V-67" value="Сервис получения данных" style="html=1;outlineConnect=0;whiteSpace=wrap;fillColor=#AFFFAF;shape=mxgraph.archimate3.application;appType=serv;archiType=rounded" vertex="1" parent="1">
          <mxGeometry x="-110" y="1359" width="150" height="75" as="geometry" />
        </mxCell>
        <mxCell id="NRnLiXCZs7Ot5jkAOs1V-75" style="edgeStyle=orthogonalEdgeStyle;rounded=0;orthogonalLoop=1;jettySize=auto;html=1;exitX=0.5;exitY=0;exitDx=0;exitDy=0;exitPerimeter=0;entryX=0.5;entryY=1;entryDx=0;entryDy=0;entryPerimeter=0;" edge="1" parent="1" source="NRnLiXCZs7Ot5jkAOs1V-71" target="NRnLiXCZs7Ot5jkAOs1V-40">
          <mxGeometry relative="1" as="geometry" />
        </mxCell>
        <mxCell id="NRnLiXCZs7Ot5jkAOs1V-80" style="edgeStyle=orthogonalEdgeStyle;rounded=0;orthogonalLoop=1;jettySize=auto;html=1;exitX=0.5;exitY=1;exitDx=0;exitDy=0;exitPerimeter=0;entryX=0.5;entryY=0;entryDx=0;entryDy=0;entryPerimeter=0;endArrow=diamond;endFill=1;" edge="1" parent="1" source="NRnLiXCZs7Ot5jkAOs1V-71" target="NRnLiXCZs7Ot5jkAOs1V-66">
          <mxGeometry relative="1" as="geometry" />
        </mxCell>
        <mxCell id="NRnLiXCZs7Ot5jkAOs1V-71" value="Получение API" style="html=1;outlineConnect=0;whiteSpace=wrap;fillColor=#AFFFAF;shape=mxgraph.archimate3.application;appType=interface;archiType=square;" vertex="1" parent="1">
          <mxGeometry x="240" y="1344" width="150" height="75" as="geometry" />
        </mxCell>
        <mxCell id="NRnLiXCZs7Ot5jkAOs1V-77" style="edgeStyle=orthogonalEdgeStyle;rounded=0;orthogonalLoop=1;jettySize=auto;html=1;exitX=0;exitY=0.5;exitDx=0;exitDy=0;exitPerimeter=0;entryX=0.5;entryY=1;entryDx=0;entryDy=0;entryPerimeter=0;dashed=1;endArrow=block;endFill=0;" edge="1" parent="1" source="NRnLiXCZs7Ot5jkAOs1V-76" target="NRnLiXCZs7Ot5jkAOs1V-67">
          <mxGeometry relative="1" as="geometry" />
        </mxCell>
        <mxCell id="NRnLiXCZs7Ot5jkAOs1V-95" style="edgeStyle=orthogonalEdgeStyle;rounded=0;orthogonalLoop=1;jettySize=auto;html=1;exitX=1;exitY=0.75;exitDx=0;exitDy=0;exitPerimeter=0;entryX=0;entryY=0.75;entryDx=0;entryDy=0;entryPerimeter=0;dashed=1;" edge="1" parent="1" source="NRnLiXCZs7Ot5jkAOs1V-76" target="NRnLiXCZs7Ot5jkAOs1V-88">
          <mxGeometry relative="1" as="geometry" />
        </mxCell>
        <mxCell id="NRnLiXCZs7Ot5jkAOs1V-76" value="Обеспечение доступа к данным" style="html=1;outlineConnect=0;whiteSpace=wrap;fillColor=#AFFFAF;shape=mxgraph.archimate3.application;appType=func;archiType=rounded;" vertex="1" parent="1">
          <mxGeometry x="118.5" y="1613" width="150" height="75" as="geometry" />
        </mxCell>
        <mxCell id="NRnLiXCZs7Ot5jkAOs1V-93" style="edgeStyle=orthogonalEdgeStyle;rounded=0;orthogonalLoop=1;jettySize=auto;html=1;exitX=0.5;exitY=0;exitDx=0;exitDy=0;exitPerimeter=0;entryX=0.5;entryY=1;entryDx=0;entryDy=0;entryPerimeter=0;" edge="1" parent="1" source="NRnLiXCZs7Ot5jkAOs1V-86" target="NRnLiXCZs7Ot5jkAOs1V-41">
          <mxGeometry relative="1" as="geometry" />
        </mxCell>
        <mxCell id="NRnLiXCZs7Ot5jkAOs1V-86" value="Сервис записи данных о пользователе" style="html=1;outlineConnect=0;whiteSpace=wrap;fillColor=#AFFFAF;shape=mxgraph.archimate3.application;appType=serv;archiType=rounded" vertex="1" parent="1">
          <mxGeometry x="495" y="1344" width="150" height="75" as="geometry" />
        </mxCell>
        <mxCell id="NRnLiXCZs7Ot5jkAOs1V-94" style="edgeStyle=orthogonalEdgeStyle;rounded=0;orthogonalLoop=1;jettySize=auto;html=1;exitX=1;exitY=0.5;exitDx=0;exitDy=0;exitPerimeter=0;entryX=1;entryY=0.5;entryDx=0;entryDy=0;entryPerimeter=0;" edge="1" parent="1" source="NRnLiXCZs7Ot5jkAOs1V-87" target="NRnLiXCZs7Ot5jkAOs1V-34">
          <mxGeometry relative="1" as="geometry">
            <Array as="points">
              <mxPoint x="1179" y="1382" />
              <mxPoint x="1179" y="881" />
            </Array>
          </mxGeometry>
        </mxCell>
        <mxCell id="NRnLiXCZs7Ot5jkAOs1V-87" value="Сервис записи данных о фильме" style="html=1;outlineConnect=0;whiteSpace=wrap;fillColor=#AFFFAF;shape=mxgraph.archimate3.application;appType=serv;archiType=rounded" vertex="1" parent="1">
          <mxGeometry x="717" y="1344" width="150" height="75" as="geometry" />
        </mxCell>
        <mxCell id="NRnLiXCZs7Ot5jkAOs1V-90" style="edgeStyle=orthogonalEdgeStyle;rounded=0;orthogonalLoop=1;jettySize=auto;html=1;exitX=0.5;exitY=0;exitDx=0;exitDy=0;exitPerimeter=0;entryX=0.5;entryY=1;entryDx=0;entryDy=0;entryPerimeter=0;dashed=1;endArrow=block;endFill=0;" edge="1" parent="1" source="NRnLiXCZs7Ot5jkAOs1V-88" target="NRnLiXCZs7Ot5jkAOs1V-86">
          <mxGeometry relative="1" as="geometry" />
        </mxCell>
        <mxCell id="NRnLiXCZs7Ot5jkAOs1V-91" style="edgeStyle=orthogonalEdgeStyle;rounded=0;orthogonalLoop=1;jettySize=auto;html=1;exitX=0.75;exitY=0;exitDx=0;exitDy=0;exitPerimeter=0;entryX=0.5;entryY=1;entryDx=0;entryDy=0;entryPerimeter=0;dashed=1;endArrow=block;endFill=0;" edge="1" parent="1" source="NRnLiXCZs7Ot5jkAOs1V-88" target="NRnLiXCZs7Ot5jkAOs1V-87">
          <mxGeometry relative="1" as="geometry" />
        </mxCell>
        <mxCell id="NRnLiXCZs7Ot5jkAOs1V-88" value="Запись новых данных" style="html=1;outlineConnect=0;whiteSpace=wrap;fillColor=#AFFFAF;shape=mxgraph.archimate3.application;appType=proc;archiType=rounded;" vertex="1" parent="1">
          <mxGeometry x="495" y="1613" width="150" height="75" as="geometry" />
        </mxCell>
      </root>
    </mxGraphModel>
  </diagram>
</mxfile>
